# AST/ASF file generated using VICON BodyLanguage
# -----------------------------------------------
:version 1.10
:name VICON
:units
  mass 1.0
  length 0.45
  angle deg
:documentation
   .ast/.asf automatically generated from VICON data using
   VICON BodyBuilder and BodyLanguage model FoxedUp or BRILLIANT.MOD
:root
   order TX TY TZ RX RY RZ
   axis XYZ
   position 0 0 0  
   orientation 0 0 0 
:bonedata
  begin
     id 1 
     name lhipjoint
     direction 0.692814 -0.645514 0.321437 
     length 2.38754 
     axis 0 0 0  XYZ
  end
  begin
     id 2 
     name lfemur
     direction 0.34202 -0.939693 0  
     length 6.41921  
     axis 0 0 20  XYZ
    dof rx ry rz
    limits (-160.0 20.0)
           (-70.0 70.0)
           (-60.0 70.0)
  end
  begin
     id 3 
     name ltibia
     direction 0.34202 -0.939693 0   
     length 6.98247   
     axis 0 0 20   XYZ
    dof rx
    limits (-10.0 170.0)
  end
  begin
     id 4 
     name lfoot
     direction 0.0947186 -0.260237 0.960888   
     length 1.83034   
     axis -90 7.62852e-016 20   XYZ
    dof rx rz
    limits (-45.0 90.0)
           (-70.0 20.0)
  end
  begin
     id 5 
     name ltoes
     direction 1.53538e-011 -4.21952e-011 1   
     length 0.920499   
     axis -90 7.62852e-016 20   XYZ
    dof rx
    limits (-90.0 20.0)
  end
  begin
     id 6 
     name rhipjoint
     direction -0.631686 -0.693949 0.345555   
     length 2.2209  
     axis 0 0 0  XYZ 
  end
  begin
     id 7 
     name rfemur
     direction -0.34202 -0.939693 0   
     length 6.49542   
     axis 0 0 -20   XYZ
    dof rx ry rz
    limits (-160.0 20.0)
           (-70.0 70.0)
           (-70.0 60.0)
  end
  begin
     id 8 
     name rtibia
     direction -0.34202 -0.939693 0   
     length 7.21712   
     axis 0 0 -20   XYZ
    dof rx
    limits (-10.0 170.0)
 end
 begin
     id 9 
     name rfoot
     direction -0.0825378 -0.226771 0.970444   
     length 1.89724  
     axis -90 -7.62852e-016 -20   XYZ
    dof rx rz
    limits (-45.0 90.0)
           (-20.0 70.0)
  end
  begin
     id 10 
     name rtoes
     direction -1.53515e-011 -4.22016e-011 1   
     length 0.955868   
     axis -90 -7.62852e-016 -20   XYZ
    dof rx
    limits (-90.0 20.0)
  end
  begin
     id 11 
     name lowerback
     direction -0.0104711 0.984802 -0.173368   
     length 1.84931   
     axis 0 0 0   XYZ
    dof rx ry rz
    limits (-20.0 45.0)
           (-30.0 30.0)
           (-30.0 30.0)
  end
  begin
     id 12 
     name upperback
     direction -0.00286433 0.999996 -0.000382853   
     length 1.85768   
     axis 0 0 0   XYZ
    dof rx ry rz
    limits (-20.0 45.0)
           (-30.0 30.0)
           (-30.0 30.0)
  end
  begin
     id 13 
     name thorax
     direction 0.00167534 0.996793 0.0800069   
     length 1.92   
     axis 0 0 0   XYZ
    dof rx ry rz
    limits (-20.0 45.0)
           (-30.0 30.0)
           (-30.0 30.0)
  end
  begin
     id 14 
     name lowerneck
     direction -0.0672491 0.995415 0.068018   
     length 1.58923   
     axis 0 0 0   XYZ
    dof rx ry rz
    limits (-20.0 45.0)
           (-30.0 30.0)
           (-30.0 30.0)
  end
  begin
     id 15 
     name upperneck
     direction 0.0958019 0.982476 -0.159884   
     length 1.60189   
     axis 0 0 0   XYZ
    dof rx ry rz
    limits (-20.0 45.0)
           (-30.0 30.0)
           (-30.0 30.0)
  end
  begin
     id 16
     name head
     direction 0.032989 0.997338 -0.0650226  
     length 1.61681  
     axis 0 0 0   XYZ
    dof rx ry rz
    limits (-20.0 45.0)
           (-30.0 30.0)
           (-30.0 30.0)
  end
  begin
     id 17 
     name lclavicle
     direction 0.954279 0.298875 -0.00496069  
     length 2.99449  
     axis 0 0 0   XYZ
    dof ry rz
    limits (-20.0 10.0)
           (0.0 20.0)
  end
  begin
     id 18 
     name lhumerus
     direction 1 -4.48985e-011 -4.2057e-027   
     length 4.79185   
     axis 180 -30 -90   XYZ
    dof rx ry rz
    limits (-60.0 90.0)
           (-90.0 90.0)
           (-90.0 90.0)
  end
  begin
     id 19
     name lradius
     direction 1 -4.48945e-011 1.15441e-028   
     length 2.65553   
     axis 180 -30 -90   XYZ
    dof rx
    limits (-10.0 170.0)
  end
  begin
     id 20
     name lwrist
     direction 1 -4.4899e-011 4.8894e-028   
     length 1.32777   
     axis -2.56392e-016 90 90   XYZ
    dof ry
    limits (-180.0 0.0)
 end
  begin
     id 21 
     name lhand
     direction 1 -4.48908e-011 9.7788e-028   
     length 0.743904   
     axis -6.23971e-016 90 90   XYZ
    dof rx rz
    limits (-90.0 90.0)
           (-45.0 45.0)
  end
  begin
     id 22 
     name lfingers
     direction 1 -4.49068e-011 1.95576e-027   
     length 0.599754   
     axis -1.24794e-015 90 90   XYZ
    dof rx
    limits (0.0 90.0)
  end
  begin
     id 23
     name lthumb
     direction 0.707107 -6.34883e-011 0.707107   
     length 0.861131   
     axis -90 45 2.85299e-015   XYZ
    dof rx rz
    limits (-45.0 45.0)
           (-45.0 45.0)
  end
  begin
     id 24 
     name rclavicle
     direction -0.957921 0.286916 0.00811568   
     length 3.06817  
     axis 0 0 0   XYZ 
    dof ry rz
    limits (-10.0 20.0)
           (-20.0 0.0)
  end
  begin
     id 25 
     name rhumerus
     direction -1 -4.48971e-011 -3.07942e-027  
     length 4.77254   
     axis 180 30 90   XYZ
    dof rx ry rz
    limits (-90.0 60.0)
           (-90.0 90.0)
           (-90.0 90.0)
  end
  begin
     id 26 
     name rradius
     direction -1 -4.48957e-011 -9.6815e-028   
     length 2.75995   
     axis 180 30 90   XYZ
    dof rx
    limits (-10.0 170.0)
  end
  begin
     id 27 
     name rwrist
     direction -1 -4.48979e-011 4.8894e-028   
     length 1.37997   
     axis -2.56392e-016 -90 -90   XYZ
    dof ry
    limits (-180.0 0.0)
  end
  begin
     id 28
     name rhand
     direction -1 -4.48906e-011 9.7788e-028   
     length 0.701619   
     axis -6.23971e-016 -90 -90   XYZ
    dof rx rz
    limits (-90.0 90.0)
           (-45.0 45.0)
  end
  begin
     id 29
     name rfingers
     direction -1 -4.49018e-011 1.95576e-027   
     length 0.565663   
     axis -1.24794e-015 -90 -90   XYZ
    dof rx
    limits (0.0 90.0)
  end
  begin
     id 30
     name rthumb
     direction -0.707107 -6.34881e-011 0.707107   
     length 0.812183   
     axis -90 -45 -2.85299e-015   XYZ
    dof rx rz
    limits (-45.0 45.0)
           (-45.0 45.0)
  end
:hierarchy
  begin
    root lhipjoint rhipjoint lowerback
    lhipjoint lfemur
    lfemur ltibia
    ltibia lfoot
    lfoot ltoes
    rhipjoint rfemur
    rfemur rtibia
    rtibia rfoot
    rfoot rtoes
    lowerback upperback
    upperback thorax
    thorax lowerneck lclavicle rclavicle
    lowerneck upperneck
    upperneck head
    lclavicle lhumerus
    lhumerus lradius
    lradius lwrist
    lwrist lhand lthumb
    lhand lfingers
    rclavicle rhumerus
    rhumerus rradius
    rradius rwrist
    rwrist rhand rthumb
    rhand rfingers
  end

#!OML:ASF F:\VICON\USERDATA\INSTALL\rory3\rory3.ASF
:FULLY-SPECIFIED
:DEGREES
501
root 0.0375747 15.2764 -0.208779 -2.91793 5.82257 0.997227
lowerback 12.9656 -0.570853 0.739837
upperback -3.26375 -0.172303 4.42922
thorax -10.8596 0.0522351 4.44814
lowerneck -6.04541 -9.27741 -11.5026
upperneck 11.9434 -13.9411 18.0012
head 6.73173 -6.22799 6.46067
rclavicle -1.08338e-014 1.43125e-014
rhumerus 4.05312 -36.6191 12.3339
rradius 41.5846
rwrist -24.7347
rhand 15.7483 11.2766
rfingers 7.12502
rthumb 40.5555 -13.7794
lclavicle -1.08338e-014 1.43125e-014
lhumerus -16.1346 19.2327 -11.3404
lradius 45.2865
lwrist 49.5939
lhand 9.46485 19.554
lfingers 7.12502
lthumb 34.6186 46.1982
rfemur -11.8946 -2.02093 15.5129
rtibia 44.2266
rfoot -23.4753 -7.99205
rtoes -18.2731
lfemur -13.0079 -2.14235 -15.8733
ltibia 39.9954
lfoot -16.7246 -8.07666
ltoes -7.3429
502
root 0.0383461 15.2765 -0.196145 -2.92376 5.66038 1.03772
lowerback 12.8316 -0.597277 0.846382
upperback -3.39522 -0.17407 4.56623
thorax -10.9289 0.0523081 4.5402
lowerneck -6.12029 -9.29166 -11.5129
upperneck 11.8616 -13.9373 17.97
head 6.7173 -6.22689 6.44811
rclavicle 2.15681e-014 -2.38542e-014
rhumerus 3.97866 -36.7493 12.5019
rradius 41.588
rwrist -24.7717
rhand 15.5827 11.2035
rfingers 7.12502
rthumb 40.3999 -13.9007
lclavicle 2.15681e-014 -2.38542e-014
lhumerus -16.1716 19.2823 -11.3927
lradius 45.4552
lwrist 49.7057
lhand 9.32797 19.7078
lfingers 7.12502
lthumb 34.4887 46.3817
rfemur -11.8487 -1.93685 15.4722
rtibia 44.1998
rfoot -23.4841 -7.98072
rtoes -18.3577
lfemur -12.8631 -2.08075 -15.9143
ltibia 39.9117
lfoot -16.7914 -7.98074
ltoes -6.87732
503
root 0.0400213 15.2761 -0.180208 -2.92559 5.51077 1.15561
lowerback 12.7043 -0.632352 0.894052
upperback -3.54895 -0.200891 4.66061
thorax -11.0249 0.0431657 4.62573
lowerneck -6.18676 -9.30114 -11.4984
upperneck 11.8023 -13.9318 17.9254
head 6.70521 -6.22445 6.4278
rclavicle 2.98177e-015 3.02153e-014
rhumerus 3.81941 -36.6742 12.703
rradius 41.7031
rwrist -25.0049
rhand 15.4603 11.0801
rfingers 7.12502
rthumb 40.2847 -14.0595
lclavicle 2.98177e-015 3.02153e-014
lhumerus -16.1442 19.3929 -11.4833
lradius 45.4524
lwrist 49.7081
lhand 9.27407 19.7372
lfingers 7.12502
lthumb 34.4375 46.4228
rfemur -11.7773 -1.87326 15.3309
rtibia 44.1662
rfoot -23.521 -7.90613
rtoes -18.345
lfemur -12.7004 -2.06119 -16.0627
ltibia 39.8227
lfoot -16.8748 -7.79007
ltoes -7.17995
504
root 0.0426157 15.276 -0.16253 -2.95099 5.41911 1.19585
lowerback 12.5799 -0.705758 1.05247
upperback -3.7054 -0.262403 4.73304
thorax -11.1236 0.00892529 4.63166
lowerneck -6.22735 -9.30729 -11.2988
upperneck 11.6949 -13.9177 17.7672
head 6.6496 -6.21941 6.3407
rclavicle 9.93923e-015 3.33958e-014
rhumerus 3.80184 -36.8761 12.6872
rradius 41.6695
rwrist -24.8293
rhand 15.4909 11.1227
rfingers 7.12502
rthumb 40.3136 -14.008
lclavicle 9.93923e-015 3.33958e-014
lhumerus -16.0845 19.3214 -11.6108
lradius 45.4477
lwrist 49.8342
lhand 9.0695 19.7493
lfingers 7.12502
lthumb 34.2433 46.4787
rfemur -11.6473 -1.86031 15.2721
rtibia 44.113
rfoot -23.5934 -7.87691
rtoes -18.5905
lfemur -12.5185 -2.04256 -16.1259
ltibia 39.7363
lfoot -16.9973 -7.70994
ltoes -7.19484
505
root 0.0450258 15.2789 -0.145186 -2.95001 5.36354 1.24303
lowerback 12.3853 -0.769935 1.17426
upperback -3.84749 -0.317236 4.84514
thorax -11.165 -0.0189342 4.69783
lowerneck -6.26819 -9.30465 -11.2502
upperneck 11.5885 -13.8937 17.7239
head 6.61298 -6.20941 6.3185
rclavicle -8.15017e-015 2.70347e-014
rhumerus 3.79386 -37.1715 12.7803
rradius 41.5974
rwrist -24.6502
rhand 15.5757 11.298
rfingers 7.12502
rthumb 40.3933 -13.8082
lclavicle -8.15017e-015 2.70347e-014
lhumerus -16.0646 19.2892 -11.6387
lradius 45.4437
lwrist 49.9095
lhand 9.08203 19.8236
lfingers 7.12502
lthumb 34.2552 46.5504
rfemur -11.5339 -1.83326 15.2083
rtibia 44.0369
rfoot -23.7016 -7.76514
rtoes -18.3541
lfemur -12.3582 -2.02766 -16.1953
ltibia 39.644
lfoot -17.0968 -7.65404
ltoes -7.02359
506
root 0.0461395 15.2804 -0.129243 -2.97835 5.26293 1.27923
lowerback 12.221 -0.804548 1.27258
upperback -3.96502 -0.33428 4.97795
thorax -11.1997 -0.0264623 4.79216
lowerneck -6.28641 -9.31411 -11.2256
upperneck 11.4702 -13.8835 17.6797
head 6.57248 -6.2087 6.29911
rclavicle -2.5842e-015 2.8625e-014
rhumerus 3.59006 -37.1554 13.1116
rradius 41.6731
rwrist -24.8359
rhand 15.5691 11.3184
rfingers 7.12502
rthumb 40.387 -13.7897
lclavicle -2.5842e-015 2.8625e-014
lhumerus -16.0444 19.4293 -11.6202
lradius 45.4221
lwrist 49.8872
lhand 9.11213 19.7795
lfingers 7.12502
lthumb 34.2837 46.4999
rfemur -11.4048 -1.74573 15.1712
rtibia 43.945
rfoot -23.7156 -7.74693
rtoes -18.5898
lfemur -12.1757 -1.96414 -16.236
ltibia 39.5622
lfoot -17.14 -7.63578
ltoes -6.62789
